<svg width="114" height="24" viewBox="0 0 114 24" fill="none" xmlns="http://www.w3.org/2000/svg">
<path d="M2.67969 5.32031L2.73828 6.72656C3.66797 5.63281 4.92188 5.08594 6.5 5.08594C8.27344 5.08594 9.48047 5.76562 10.1211 7.125C10.543 6.51562 11.0898 6.02344 11.7617 5.64844C12.4414 5.27344 13.2422 5.08594 14.1641 5.08594C16.9453 5.08594 18.3594 6.55859 18.4062 9.50391V18H16.2383V9.63281C16.2383 8.72656 16.0312 8.05078 15.6172 7.60547C15.2031 7.15234 14.5078 6.92578 13.5312 6.92578C12.7266 6.92578 12.0586 7.16797 11.5273 7.65234C10.9961 8.12891 10.6875 8.77344 10.6016 9.58594V18H8.42188V9.69141C8.42188 7.84766 7.51953 6.92578 5.71484 6.92578C4.29297 6.92578 3.32031 7.53125 2.79688 8.74219V18H0.628906V5.32031H2.67969ZM25.8359 14.8242L28.7891 5.32031H31.1094L26.0117 19.957C25.2227 22.0664 23.9688 23.1211 22.25 23.1211L21.8398 23.0859L21.0312 22.9336V21.1758L21.6172 21.2227C22.3516 21.2227 22.9219 21.0742 23.3281 20.7773C23.7422 20.4805 24.082 19.9375 24.3477 19.1484L24.8281 17.8594L20.3047 5.32031H22.6719L25.8359 14.8242ZM40.4375 14.6367C40.4375 14.0508 40.2148 13.5977 39.7695 13.2773C39.332 12.9492 38.5625 12.668 37.4609 12.4336C36.3672 12.1992 35.4961 11.918 34.8477 11.5898C34.207 11.2617 33.7305 10.8711 33.418 10.418C33.1133 9.96484 32.9609 9.42578 32.9609 8.80078C32.9609 7.76172 33.3984 6.88281 34.2734 6.16406C35.1562 5.44531 36.2812 5.08594 37.6484 5.08594C39.0859 5.08594 40.25 5.45703 41.1406 6.19922C42.0391 6.94141 42.4883 7.89062 42.4883 9.04688H40.3086C40.3086 8.45312 40.0547 7.94141 39.5469 7.51172C39.0469 7.08203 38.4141 6.86719 37.6484 6.86719C36.8594 6.86719 36.2422 7.03906 35.7969 7.38281C35.3516 7.72656 35.1289 8.17578 35.1289 8.73047C35.1289 9.25391 35.3359 9.64844 35.75 9.91406C36.1641 10.1797 36.9102 10.4336 37.9883 10.6758C39.0742 10.918 39.9531 11.207 40.625 11.543C41.2969 11.8789 41.793 12.2852 42.1133 12.7617C42.4414 13.2305 42.6055 13.8047 42.6055 14.4844C42.6055 15.6172 42.1523 16.5273 41.2461 17.2148C40.3398 17.8945 39.1641 18.2344 37.7188 18.2344C36.7031 18.2344 35.8047 18.0547 35.0234 17.6953C34.2422 17.3359 33.6289 16.8359 33.1836 16.1953C32.7461 15.5469 32.5273 14.8477 32.5273 14.0977H34.6953C34.7344 14.8242 35.0234 15.4023 35.5625 15.832C36.1094 16.2539 36.8281 16.4648 37.7188 16.4648C38.5391 16.4648 39.1953 16.3008 39.6875 15.9727C40.1875 15.6367 40.4375 15.1914 40.4375 14.6367ZM47.5977 6.85547C48.5586 5.67578 49.8086 5.08594 51.3477 5.08594C54.0273 5.08594 55.3789 6.59766 55.4023 9.62109V18H53.2344V9.60938C53.2266 8.69531 53.0156 8.01953 52.6016 7.58203C52.1953 7.14453 51.5586 6.92578 50.6914 6.92578C49.9883 6.92578 49.3711 7.11328 48.8398 7.48828C48.3086 7.86328 47.8945 8.35547 47.5977 8.96484V18H45.4297V0H47.5977V6.85547ZM96.9102 18.2344C95.1914 18.2344 93.793 17.6719 92.7148 16.5469C91.6367 15.4141 91.0977 13.9023 91.0977 12.0117V11.6133C91.0977 10.3555 91.3359 9.23438 91.8125 8.25C92.2969 7.25781 92.9688 6.48438 93.8281 5.92969C94.6953 5.36719 95.6328 5.08594 96.6406 5.08594C98.2891 5.08594 99.5703 5.62891 100.484 6.71484C101.398 7.80078 101.855 9.35547 101.855 11.3789V12.2812H93.2656C93.2969 13.5312 93.6602 14.543 94.3555 15.3164C95.0586 16.082 95.9492 16.4648 97.0273 16.4648C97.793 16.4648 98.4414 16.3086 98.9727 15.9961C99.5039 15.6836 99.9688 15.2695 100.367 14.7539L101.691 15.7852C100.629 17.418 99.0352 18.2344 96.9102 18.2344ZM96.6406 6.86719C95.7656 6.86719 95.0312 7.1875 94.4375 7.82812C93.8438 8.46094 93.4766 9.35156 93.3359 10.5H99.6875V10.3359C99.625 9.23438 99.3281 8.38281 98.7969 7.78125C98.2656 7.17188 97.5469 6.86719 96.6406 6.86719ZM111.758 14.6367C111.758 14.0508 111.535 13.5977 111.09 13.2773C110.652 12.9492 109.883 12.668 108.781 12.4336C107.688 12.1992 106.816 11.918 106.168 11.5898C105.527 11.2617 105.051 10.8711 104.738 10.418C104.434 9.96484 104.281 9.42578 104.281 8.80078C104.281 7.76172 104.719 6.88281 105.594 6.16406C106.477 5.44531 107.602 5.08594 108.969 5.08594C110.406 5.08594 111.57 5.45703 112.461 6.19922C113.359 6.94141 113.809 7.89062 113.809 9.04688H111.629C111.629 8.45312 111.375 7.94141 110.867 7.51172C110.367 7.08203 109.734 6.86719 108.969 6.86719C108.18 6.86719 107.562 7.03906 107.117 7.38281C106.672 7.72656 106.449 8.17578 106.449 8.73047C106.449 9.25391 106.656 9.64844 107.07 9.91406C107.484 10.1797 108.23 10.4336 109.309 10.6758C110.395 10.918 111.273 11.207 111.945 11.543C112.617 11.8789 113.113 12.2852 113.434 12.7617C113.762 13.2305 113.926 13.8047 113.926 14.4844C113.926 15.6172 113.473 16.5273 112.566 17.2148C111.66 17.8945 110.484 18.2344 109.039 18.2344C108.023 18.2344 107.125 18.0547 106.344 17.6953C105.562 17.3359 104.949 16.8359 104.504 16.1953C104.066 15.5469 103.848 14.8477 103.848 14.0977H106.016C106.055 14.8242 106.344 15.4023 106.883 15.832C107.43 16.2539 108.148 16.4648 109.039 16.4648C109.859 16.4648 110.516 16.3008 111.008 15.9727C111.508 15.6367 111.758 15.1914 111.758 14.6367Z" fill="black" fill-opacity="0.43"/>
<path d="M72.1133 10.0195C72.1133 11.6914 71.832 13.1523 71.2695 14.4023C70.707 15.6445 69.9102 16.5938 68.8789 17.25C67.8477 17.9062 66.6445 18.2344 65.2695 18.2344C63.9258 18.2344 62.7344 17.9062 61.6953 17.25C60.6562 16.5859 59.8477 15.6445 59.2695 14.4258C58.6992 13.1992 58.4062 11.7812 58.3906 10.1719V8.94141C58.3906 7.30078 58.6758 5.85156 59.2461 4.59375C59.8164 3.33594 60.6211 2.375 61.6602 1.71094C62.707 1.03906 63.9023 0.703125 65.2461 0.703125C66.6133 0.703125 67.8164 1.03516 68.8555 1.69922C69.9023 2.35547 70.707 3.3125 71.2695 4.57031C71.832 5.82031 72.1133 7.27734 72.1133 8.94141V10.0195ZM69.875 8.91797C69.875 6.89453 69.4688 5.34375 68.6562 4.26562C67.8438 3.17969 66.707 2.63672 65.2461 2.63672C63.8242 2.63672 62.7031 3.17969 61.8828 4.26562C61.0703 5.34375 60.6523 6.84375 60.6289 8.76562V10.0195C60.6289 11.9805 61.0391 13.5234 61.8594 14.6484C62.6875 15.7656 63.8242 16.3242 65.2695 16.3242C66.7227 16.3242 67.8477 15.7969 68.6445 14.7422C69.4414 13.6797 69.8516 12.1602 69.875 10.1836V8.91797ZM88.6133 10.0195C88.6133 11.6914 88.332 13.1523 87.7695 14.4023C87.207 15.6445 86.4102 16.5938 85.3789 17.25C84.3477 17.9062 83.1445 18.2344 81.7695 18.2344C80.4258 18.2344 79.2344 17.9062 78.1953 17.25C77.1562 16.5859 76.3477 15.6445 75.7695 14.4258C75.1992 13.1992 74.9062 11.7812 74.8906 10.1719V8.94141C74.8906 7.30078 75.1758 5.85156 75.7461 4.59375C76.3164 3.33594 77.1211 2.375 78.1602 1.71094C79.207 1.03906 80.4023 0.703125 81.7461 0.703125C83.1133 0.703125 84.3164 1.03516 85.3555 1.69922C86.4023 2.35547 87.207 3.3125 87.7695 4.57031C88.332 5.82031 88.6133 7.27734 88.6133 8.94141V10.0195ZM86.375 8.91797C86.375 6.89453 85.9688 5.34375 85.1562 4.26562C84.3438 3.17969 83.207 2.63672 81.7461 2.63672C80.3242 2.63672 79.2031 3.17969 78.3828 4.26562C77.5703 5.34375 77.1523 6.84375 77.1289 8.76562V10.0195C77.1289 11.9805 77.5391 13.5234 78.3594 14.6484C79.1875 15.7656 80.3242 16.3242 81.7695 16.3242C83.2227 16.3242 84.3477 15.7969 85.1445 14.7422C85.9414 13.6797 86.3516 12.1602 86.375 10.1836V8.91797Z" fill="black" fill-opacity="0.43"/>
<path d="M72.1133 10.0195C72.1133 11.6914 71.832 13.1523 71.2695 14.4023C70.707 15.6445 69.9102 16.5938 68.8789 17.25C67.8477 17.9062 66.6445 18.2344 65.2695 18.2344C63.9258 18.2344 62.7344 17.9062 61.6953 17.25C60.6562 16.5859 59.8477 15.6445 59.2695 14.4258C58.6992 13.1992 58.4062 11.7812 58.3906 10.1719V8.94141C58.3906 7.30078 58.6758 5.85156 59.2461 4.59375C59.8164 3.33594 60.6211 2.375 61.6602 1.71094C62.707 1.03906 63.9023 0.703125 65.2461 0.703125C66.6133 0.703125 67.8164 1.03516 68.8555 1.69922C69.9023 2.35547 70.707 3.3125 71.2695 4.57031C71.832 5.82031 72.1133 7.27734 72.1133 8.94141V10.0195ZM69.875 8.91797C69.875 6.89453 69.4688 5.34375 68.6562 4.26562C67.8438 3.17969 66.707 2.63672 65.2461 2.63672C63.8242 2.63672 62.7031 3.17969 61.8828 4.26562C61.0703 5.34375 60.6523 6.84375 60.6289 8.76562V10.0195C60.6289 11.9805 61.0391 13.5234 61.8594 14.6484C62.6875 15.7656 63.8242 16.3242 65.2695 16.3242C66.7227 16.3242 67.8477 15.7969 68.6445 14.7422C69.4414 13.6797 69.8516 12.1602 69.875 10.1836V8.91797ZM88.6133 10.0195C88.6133 11.6914 88.332 13.1523 87.7695 14.4023C87.207 15.6445 86.4102 16.5938 85.3789 17.25C84.3477 17.9062 83.1445 18.2344 81.7695 18.2344C80.4258 18.2344 79.2344 17.9062 78.1953 17.25C77.1562 16.5859 76.3477 15.6445 75.7695 14.4258C75.1992 13.1992 74.9062 11.7812 74.8906 10.1719V8.94141C74.8906 7.30078 75.1758 5.85156 75.7461 4.59375C76.3164 3.33594 77.1211 2.375 78.1602 1.71094C79.207 1.03906 80.4023 0.703125 81.7461 0.703125C83.1133 0.703125 84.3164 1.03516 85.3555 1.69922C86.4023 2.35547 87.207 3.3125 87.7695 4.57031C88.332 5.82031 88.6133 7.27734 88.6133 8.94141V10.0195ZM86.375 8.91797C86.375 6.89453 85.9688 5.34375 85.1562 4.26562C84.3438 3.17969 83.207 2.63672 81.7461 2.63672C80.3242 2.63672 79.2031 3.17969 78.3828 4.26562C77.5703 5.34375 77.1523 6.84375 77.1289 8.76562V10.0195C77.1289 11.9805 77.5391 13.5234 78.3594 14.6484C79.1875 15.7656 80.3242 16.3242 81.7695 16.3242C83.2227 16.3242 84.3477 15.7969 85.1445 14.7422C85.9414 13.6797 86.3516 12.1602 86.375 10.1836V8.91797Z" fill="#4167FA"/>
</svg>
